<svg id="Capa_1" enable-background="new 0 0 511.962 511.962" height="512" viewBox="0 0 511.962 511.962" width="512" xmlns="http://www.w3.org/2000/svg"><g><path d="m489.965 120.063c0-5.77-3.31-11.028-8.512-13.524l-218.984-105.063c-4.102-1.967-8.875-1.967-12.977 0l-218.985 105.063c-5.202 2.496-8.511 7.755-8.511 13.524l-.003 271.834c0 5.77 3.31 11.028 8.512 13.524l218.989 105.064c2.051.983 4.27 1.476 6.488 1.476 2.219 0 4.438-.492 6.488-1.476l218.989-105.064c5.202-2.496 8.512-7.755 8.512-13.524z" fill="#4e6ba6"/><path d="m489.965 120.063c0-5.77-3.31-11.028-8.512-13.524l-218.984-105.063c-2.051-.984-4.269-1.476-6.488-1.476v511.962c2.219 0 4.438-.492 6.488-1.476l218.989-105.064c5.202-2.496 8.512-7.755 8.512-13.524z" fill="#28487a"/><path d="m425.812 160.441c0-2.27-.519-4.457-1.457-6.432l-336.701-.095c-.967 1.999-1.504 4.22-1.504 6.526l-.002 191.081c0 5.769 3.31 11.028 8.512 13.524l154.833 74.285c2.051.983 4.27 1.476 6.488 1.476 2.219 0 4.438-.492 6.488-1.476l154.834-74.285c5.202-2.496 8.512-7.755 8.512-13.524z" fill="#8dc2eb"/><path d="m424.354 154.009h-168.373v286.798c2.219 0 4.438-.492 6.488-1.476l154.834-74.285c5.202-2.496 8.512-7.755 8.512-13.524l-.003-191.081c0-2.27-.52-4.458-1.458-6.432z" fill="#5e9ff6"/><path d="m417.3 146.916-154.831-74.284c-4.102-1.967-8.875-1.967-12.977 0l-154.831 74.284c-3.122 1.498-5.555 3.996-7.007 6.998l168.328 80.812 168.374-80.717c-1.448-3.044-3.9-5.579-7.056-7.093z" fill="#ecf9fd"/><path d="m417.3 146.916-154.831-74.284c-2.051-.983-4.27-1.476-6.488-1.476v163.569l168.374-80.717c-1.447-3.043-3.899-5.578-7.055-7.092z" fill="#d9f3fc"/></g></svg>
